<svg xmlns="http://www.w3.org/2000/svg" width="20.186" height="22.85" viewBox="0 0 20.186 22.85"><g transform="translate(-200.432 -875.575)"><path d="M465.82,25.3H448.17a1.344,1.344,0,0,1-1-.339,1.363,1.363,0,0,1-.287-1.033,8.893,8.893,0,0,1,6.575-8.291,6.617,6.617,0,0,1,1.583-.261c.806-.028,1.482-.046,2.164-.046.481,0,.92.009,1.34.029a8.625,8.625,0,0,1,7.532,4.816,8.5,8.5,0,0,1,.986,3.839A1.114,1.114,0,0,1,465.82,25.3Zm-8.62-9.12c-.67,0-1.338.018-2.134.046a5.849,5.849,0,0,0-1.378.228,8.032,8.032,0,0,0-5.96,7.517c-.016.306.038.387.055.405s.093.074.388.074h17.65a.3.3,0,0,0,.389-.4,7.669,7.669,0,0,0-.882-3.464,8.557,8.557,0,0,0-2.807-3.152A7.975,7.975,0,0,0,458.5,16.2C458.094,16.186,457.668,16.177,457.2,16.177Z" transform="translate(-246.442 873.128)"/><path d="M453.954,24.895a6.232,6.232,0,0,1,0-12.464,6.213,6.213,0,0,1,6.216,6.239,6.235,6.235,0,0,1-6.207,6.225Zm0-11.614a5.382,5.382,0,0,0,0,10.764h.008a5.39,5.39,0,0,0,3.787-9.193A5.327,5.327,0,0,0,453.954,13.281Z" transform="translate(-242.229 863.144)"/></g></svg>