<svg xmlns="http://www.w3.org/2000/svg" xmlns:xlink="http://www.w3.org/1999/xlink" width="22.331" height="23.115" viewBox="0 0 22.331 23.115"><defs><clipPath id="a"><rect width="22.331" height="23.115" fill="none"/></clipPath></defs><g clip-path="url(#a)"><path d="M22.283,20.223A19.209,19.209,0,0,1,18.929,10.8a15.706,15.706,0,0,0-.769-4.762A7.559,7.559,0,0,0,12.5,1.3c0-.005,0-.01,0-.016A1.273,1.273,0,0,0,11.166,0,1.273,1.273,0,0,0,9.828,1.287c0,.005,0,.01,0,.016A7.559,7.559,0,0,0,4.171,6.039,15.706,15.706,0,0,0,3.4,10.8a19.224,19.224,0,0,1-.959,4.662,19.344,19.344,0,0,1-2.4,4.761.348.348,0,0,0,.207.508,78.7,78.7,0,0,0,8.533.358c.159.524.166,2.027,2.276,2.027l.1,0,.1,0c2.11,0,2.117-1.5,2.276-2.027a78.7,78.7,0,0,0,8.533-.358.348.348,0,0,0,.207-.508M11.166.693c.327.013.64.188.647.534-.124-.007-.248-.012-.373-.012h-.548c-.125,0-.249.005-.373.012.007-.347.32-.521.647-.534M11.287,22.6c-.042,0-.081,0-.121,0s-.079,0-.121,0c-1.773,0-1.674-1.5-1.674-1.5h3.589s.1,1.5-1.674,1.5m-.121-2.162c-4.37,0-8.77-.1-10.233-.294a19.867,19.867,0,0,0,3-7.918c.231-1.579.149-3.208.513-4.765a7.634,7.634,0,0,1,2.027-3.7,6.354,6.354,0,0,1,4.419-1.852h.548a6.354,6.354,0,0,1,4.419,1.852,7.634,7.634,0,0,1,2.027,3.7c.364,1.557.282,3.186.513,4.765a19.867,19.867,0,0,0,3,7.918c-1.463.2-5.863.3-10.233.294" transform="translate(0 -0.001)"/></g></svg>