<svg xmlns="http://www.w3.org/2000/svg" xmlns:xlink="http://www.w3.org/1999/xlink" width="25.041" height="24.227" viewBox="0 0 25.041 24.227"><defs><clipPath id="a"><rect width="25.041" height="24.228" fill="none"/></clipPath></defs><g clip-path="url(#a)"><path d="M0,17.2A1.011,1.011,0,0,0,.287,16.8Q3.019,12.07,5.744,7.341C6.655,5.762,7.569,4.184,8.471,2.6a1.478,1.478,0,0,1,.7-.665C10.521,1.322,11.858.686,13.194.048a.483.483,0,0,1,.5.052c.613.355,1.23.7,1.838,1.066a.309.309,0,0,0,.351,0,3.923,3.923,0,0,1,3.294-.28,2.717,2.717,0,0,1,1.527,3.7,3.837,3.837,0,0,1-.674,1.1c-.1.108-.088.161.023.247.232.179.438.395.679.558a1.7,1.7,0,0,1,.694,1.063c.7,2.662,1.41,5.318,2.119,7.976q.729,2.73,1.461,5.46c.088.33.01.47-.313.556q-1.939.517-3.879,1.034-2.985.8-5.97,1.6c-.4.106-.5.045-.609-.354q-.448-1.663-.9-3.33c-.1.022-.117.115-.154.18q-.858,1.479-1.709,2.961c-.2.339-.31.372-.647.178l-9.24-5.338c-.43-.248-.859-.5-1.293-.739A1.034,1.034,0,0,1,0,17.5ZM16.331,5.728a2.077,2.077,0,0,1-4.146.163,2.054,2.054,0,0,1,1.381-2.128.319.319,0,0,0,.218-.226,3.812,3.812,0,0,1,1.126-1.686c.184-.16.125-.219-.046-.314-.427-.237-.85-.48-1.267-.735a.393.393,0,0,0-.425-.013Q11.3,1.68,9.418,2.552a.7.7,0,0,0-.331.3q-2.393,4.161-4.8,8.316-1.7,2.951-3.41,5.9c-.079.136-.1.21.071.293.27.131.525.3.785.446q4.535,2.621,9.068,5.245c.144.084.21.079.3-.076.713-1.252,1.435-2.5,2.155-3.746q2.99-5.182,5.985-10.361a.906.906,0,0,0,.151-.687,5.589,5.589,0,0,1-.064-.7c-.1-1.127-.194-2.253-.286-3.38a.248.248,0,0,0-.138-.229Q17.38,3,15.861,2.114a.211.211,0,0,0-.278.02,3.763,3.763,0,0,0-1.046,1.273c-.105.2-.047.249.151.289a2.068,2.068,0,0,1,1.643,2.033m3.6.954c.043.482.1.9.114,1.32a1.487,1.487,0,0,1-.048.884q-1.756,3.034-3.506,6.07-1.289,2.232-2.577,4.463a.417.417,0,0,0-.089.362c.122.4.226.812.327,1.221.038.156.109.19.26.146.506-.146,1.015-.283,1.525-.419L23.5,18.712c.137-.036.209-.072.157-.264q-1.486-5.5-2.948-11a.376.376,0,0,0-.109-.211l-.67-.556m-5.019,16.8.17-.044,5.8-1.547q1.631-.436,3.26-.874c.135-.036.2-.07.147-.245-.132-.417-.242-.842-.341-1.268-.042-.18-.281-.165-.281-.165s-3.46.929-5.192,1.391q-1.927.514-3.854,1.023c-.177.047-.249.1-.186.308.133.424.235.858.35,1.287.019.07.027.15.129.133M13.6,4.487a1.329,1.329,0,0,0-.74,1.475,1.411,1.411,0,1,0,1.575-1.649c-.129-.017-.154.013-.158.128a2.079,2.079,0,0,0,.214,1.036c.132.261.1.413-.093.521s-.348.021-.483-.222A2.967,2.967,0,0,1,13.6,4.487m2.819-2.829c.022.027.03.044.042.052q1.46.84,2.921,1.677a.486.486,0,0,1,.3.433c.015.344.065.686.1,1.04.11-.054.131-.148.173-.221a2.184,2.184,0,0,0-.425-2.811,3.02,3.02,0,0,0-3.108-.169" transform="translate(0 0)"/><path d="M84.77,179.181a.281.281,0,0,1-.281-.225.322.322,0,0,1,.165-.394l1.1-.633,6.173-3.562a.468.468,0,0,1,.314-.111.332.332,0,0,1,.286.265.3.3,0,0,1-.169.345c-.377.225-.757.445-1.138.664q-3.044,1.756-6.088,3.51a.676.676,0,0,1-.361.141" transform="translate(-78.95 -162.86)"/><path d="M133.907,237.195a1.6,1.6,0,1,1-1.6-1.621,1.609,1.609,0,0,1,1.6,1.621m-1.589-.948a.94.94,0,1,0-.032,1.88.961.961,0,0,0,.98-.94.944.944,0,0,0-.948-.94" transform="translate(-122.163 -220.174)"/><path d="M113.953,142.528a1.6,1.6,0,1,1,1.63-1.57,1.615,1.615,0,0,1-1.63,1.57m-.917-1.593a.938.938,0,1,0,1.876-.007.938.938,0,1,0-1.876.007" transform="translate(-105.02 -130.222)"/></g></svg>